<?xml version="1.0" encoding="UTF-8" standalone="no"?>
<!-- Created with Inkscape (http://www.inkscape.org/) -->

<svg
   xmlns:dc="http://purl.org/dc/elements/1.1/"
   xmlns:cc="http://creativecommons.org/ns#"
   xmlns:rdf="http://www.w3.org/1999/02/22-rdf-syntax-ns#"
   xmlns:svg="http://www.w3.org/2000/svg"
   xmlns="http://www.w3.org/2000/svg"
   xmlns:sodipodi="http://sodipodi.sourceforge.net/DTD/sodipodi-0.dtd"
   xmlns:inkscape="http://www.inkscape.org/namespaces/inkscape"
   id="svg3010"
   version="1.1"
   inkscape:version="0.48.4 r9939"
   width="181"
   height="181"
   sodipodi:docname="impactstory.png">
  <metadata
     id="metadata3016">
    <rdf:RDF>
      <cc:Work
         rdf:about="">
        <dc:format>image/svg+xml</dc:format>
        <dc:type
           rdf:resource="http://purl.org/dc/dcmitype/StillImage" />
        <dc:title></dc:title>
      </cc:Work>
    </rdf:RDF>
  </metadata>
  <defs
     id="defs3014" />
  <sodipodi:namedview
     pagecolor="#ffffff"
     bordercolor="#666666"
     borderopacity="1"
     objecttolerance="10"
     gridtolerance="10"
     guidetolerance="10"
     inkscape:pageopacity="0"
     inkscape:pageshadow="2"
     inkscape:window-width="1366"
     inkscape:window-height="721"
     id="namedview3012"
     showgrid="false"
     inkscape:zoom="0.46098674"
     inkscape:cx="626.73963"
     inkscape:cy="-257.28308"
     inkscape:window-x="-4"
     inkscape:window-y="-4"
     inkscape:window-maximized="1"
     inkscape:current-layer="svg3010" />
  <g
     id="g3064">
    <path
       inkscape:connector-curvature="0"
       id="path3038"
       d="M 79.65449,155.19553 C 73.26745,153.7232 65.76029,151.09418 60.15852,148.368 48.54383,142.71552 36.4041,129.9779 31.13062,117.91057 c -3.81889,-8.73867 -5.32827,-15.021 -5.71788,-23.797892 -0.49884,-11.23575 1.18184,-20.74387 5.29333,-29.947589 4.54109,-10.165345 13.16435,-20.384825 23.07162,-27.34217 5.77231,-4.053606 9.80068,-6.062477 16.12174,-8.03953 8.17934,-2.558235 11.16025,-2.926334 22.35239,-2.760115 8.85417,0.131504 9.68901,0.241464 15.65456,2.062151 10.91006,3.329703 18.77567,7.789263 27.09859,15.363933 1.01459,0.923401 5.29857,5.733516 6.69883,7.521481 5.31841,6.791268 10.40801,17.983452 12.25366,26.946174 1.21919,5.920455 1.15135,19.432698 -0.12991,25.880837 -2.00568,10.09439 -6.77603,19.90676 -13.82143,28.43034 -4.03454,4.8811 -9.13635,9.49906 -13.92418,12.60366 -4.04234,2.62133 -11.11299,6.14246 -15.05336,7.4966 -2.45536,0.84379 -7.93477,2.20787 -10.60569,2.64019 -3.46778,0.56128 -18.60055,0.72658 -20.7684,0.22689 l 0,0 z m 23.87637,-24.42055 c 3.5588,-0.11841 5.09531,-0.25868 5.32211,-0.48592 0.23866,-0.23893 0.33852,-1.86516 0.39664,-6.45293 0.0891,-7.0553 -0.006,-8.10364 -0.77669,-8.61062 -0.32733,-0.21515 -2.06063,-0.50982 -4.35812,-0.74091 -2.09802,-0.21103 -3.87343,-0.44276 -3.94544,-0.51496 -0.0715,-0.0722 -0.223426,-6.97161 -0.336696,-15.331879 -0.11325,-8.360263 -0.27,-17.339773 -0.348384,-19.9544 L 99.34181,73.929503 98.42671,73.51555 C 97.60557,73.144133 96.30462,73.109574 85.7662,73.179259 74.60107,73.253079 73.97196,73.28145 73.03074,73.753508 l -0.99024,0.496606 -0.0729,6.207506 c -0.0406,3.414138 -0.008,6.670258 0.0725,7.236048 0.17763,1.2461 0.0155,1.19848 5.50583,1.61531 l 4.02005,0.30515 0.12312,0.76019 c 0.067,0.41811 0.15234,5.953923 0.18804,12.301722 l 0.0657,11.54148 -3.52433,0.29251 c -4.47708,0.37158 -5.39909,0.53217 -5.98075,1.04176 -0.43349,0.37969 -0.48428,0.95138 -0.63303,7.12307 l -0.16166,6.71028 0.64625,0.60901 c 0.4386,0.41333 1.05934,0.65937 1.93183,0.7658 1.73542,0.21171 23.07042,0.22263 29.31034,0.015 l 0,0 z M 99.06433,61.876866 c 0.30303,-0.303951 0.39469,-13.866164 0.0964,-14.319025 -0.20946,-0.318372 -1.41155,-0.372456 -8.27824,-0.372456 -4.41817,0 -8.12571,0.09293 -8.23889,0.206522 -0.11309,0.113593 -0.24606,3.501682 -0.29526,7.529098 l -0.0894,7.322579 8.29963,-0.08009 c 4.56486,-0.04405 8.39238,-0.173027 8.50571,-0.286629 z"
       style="fill:#162d50;fill-opacity:1;fill-rule:nonzero;stroke:#162d50;stroke-width:0.49584249;stroke-miterlimit:4;stroke-opacity:1;stroke-dasharray:none" />
    <path
       inkscape:connector-curvature="0"
       id="path3056"
       d="m 57.176756,172.15237 c -4.30595,-4.29971 -8.10775,-7.03723 -12.09534,-8.70936 -0.91124,-0.38212 -3.49203,-1.23506 -5.73508,-1.89544 -6.40154,-1.88467 -10.28031,-4.13289 -12.70923,-7.36654 -1.602,-2.13275 -1.77464,-2.55515 -3.6037,-8.81683 -0.91244,-3.12362 -1.95292,-6.38243 -2.31219,-7.24181 -1.65298,-3.9539 -3.94819,-7.12341 -9.68853,-13.37911 -2.7407296,-2.9868 -3.5346196,-4.03753 -4.4606196,-5.90382 l -1.12649,-2.27036 0.003,-5.10872 0.003,-5.10873 1.11329,-4.03644 1.1133,-4.036443 -0.13497,-5.98957 c -0.13448,-5.96666 -0.13866,-6.00251 -1.09422,-9.37497 -0.90584,-3.196905 -0.96539,-3.633737 -1.06965,-7.845289 -0.17913,-7.236237 -0.077,-7.475057 6.4438296,-15.071309 7.31618,-8.52276 8.06488,-9.83509 10.84561,-19.010361 2.29182,-7.562102 2.89358,-8.859692 5.19568,-11.203591 2.34365,-2.386206 4.44727,-3.43572 11.92998,-5.951942 8.92376,-3.000811 9.19499,-3.167158 18.9238,-11.606657 6.02273,-5.2245511 7.41201,-6.0156841 10.89036,-6.2015681 3.05846,-0.163442 7.26621,0.501029 9.99375,1.578177 l 2.05626,0.812049 7.86735,0.08323 7.86734,0.08323 1.95004,-0.768305 c 3.052924,-1.202842 5.827654,-1.693994 9.588804,-1.697302 1.83017,-0.0016 3.7744,0.136152 4.34289,0.307723 1.90158,0.573894 4.16921,2.247391 9.07909,6.7003171 2.68466,2.434805 5.44892,4.859675 6.14281,5.388599 2.29867,1.7522 5.18724,3.061355 11.65163,5.280758 8.33242,2.860744 9.67776,3.565289 12.69134,6.646358 1.46941,1.502311 2.21205,3.206665 4.65319,10.679145 3.27825,10.034928 3.48376,10.404558 10.0634,18.098904 6.79386,7.944869 7.26544,8.881948 7.26544,14.437132 0,2.991204 -0.43385,5.553929 -1.66243,9.819572 -0.87933,3.05311 -0.88647,3.11894 -0.88455,8.16055 0.003,6.45921 0.25617,8.698433 1.28407,11.332613 0.75546,1.93606 0.82197,2.36197 0.9407,6.02547 0.16519,5.09665 -0.24521,8.93991 -1.09034,10.21059 -0.33496,0.50362 -2.82827,3.50183 -5.54068,6.66268 -5.24768,6.11527 -6.70415,7.98607 -7.51528,9.65324 -0.55575,1.14226 -2.84948,8.19268 -3.4736,10.67706 -1.02305,4.07237 -2.86048,7.32795 -5.62397,9.96467 -2.48822,2.37409 -3.95814,3.12387 -10.61364,5.41395 -6.40957,2.20545 -8.96926,3.35692 -11.84963,5.33052 -3.44064,2.3575 -4.87936,3.63161 -6.46407,5.7245 -1.12546,1.48639 -1.80133,2.13059 -2.56113,2.44119 -0.93095,0.38057 -3.88751,0.42102 -30.148534,0.41252 l -29.11635,-0.01 -3.32568,-3.32085 z m 47.039804,-6.54375 c 8.64453,-1.93037 19.13075,-6.34751 25.79592,-10.86609 8.76606,-5.94286 15.02478,-12.40593 21.31042,-22.00621 3.38187,-5.16523 5.05777,-8.84057 7.8106,-17.12917 1.78398,-5.37147 2.36583,-8.03065 2.6804,-12.25028 0.57616,-7.728373 0.16754,-22.712396 -0.74401,-27.282392 -1.11767,-5.603328 -5.51818,-16.700845 -8.8184,-22.238855 -2.96975,-4.983492 -7.49092,-10.617338 -12.45263,-15.517318 -7.7332,-7.636973 -16.04377,-12.654021 -27.42573,-16.556765 -7.10151,-2.435026 -11.73648,-2.909646 -26.381414,-2.701445 -9.16377,0.130279 -9.8302,0.172514 -12.36229,0.783451 -7.83502,1.890409 -17.94225,6.300265 -23.95482,10.451652 -10.68333,7.376323 -20.5453,18.828668 -25.40006,29.496165 -1.84816,4.061043 -2.96619,7.345018 -4.64406,13.640946 l -1.5677,5.882621 0,13.547007 0,13.547013 1.38274,5.04946 c 0.76051,2.77721 1.80037,6.27993 2.31079,7.78384 1.82956,5.39058 5.78739,12.79508 9.5656,17.89577 3.24354,4.37888 9.16766,10.46374 14.14184,14.52557 3.6523,2.98241 9.54759,6.68622 13.82722,8.68718 3.11954,1.45855 14.42852,5.01022 18.67162,5.86395 0.35047,0.0705 5.85616,0.0847 12.23486,0.0314 10.579514,-0.0883 11.810204,-0.14426 14.019104,-0.63751 l 0,0 z"
       style="fill:#162d50;fill-opacity:1;fill-rule:nonzero;stroke:#162d50;stroke-width:0.51527911;stroke-miterlimit:4;stroke-opacity:1;stroke-dasharray:none" />
  </g>
</svg>
