<?xml version="1.0" encoding="UTF-8" standalone="no"?>
<!-- Created with Inkscape (http://www.inkscape.org/) -->

<svg
   xmlns:dc="http://purl.org/dc/elements/1.1/"
   xmlns:cc="http://creativecommons.org/ns#"
   xmlns:rdf="http://www.w3.org/1999/02/22-rdf-syntax-ns#"
   xmlns:svg="http://www.w3.org/2000/svg"
   xmlns="http://www.w3.org/2000/svg"
   xmlns:sodipodi="http://sodipodi.sourceforge.net/DTD/sodipodi-0.dtd"
   xmlns:inkscape="http://www.inkscape.org/namespaces/inkscape"
   id="svg2"
   version="1.1"
   inkscape:version="0.48.4 r9939"
   width="300"
   height="300"
   sodipodi:docname="ghat.svg">
  <metadata
     id="metadata8">
    <rdf:RDF>
      <cc:Work
         rdf:about="">
        <dc:format>image/svg+xml</dc:format>
        <dc:type
           rdf:resource="http://purl.org/dc/dcmitype/StillImage" />
        <dc:title />
      </cc:Work>
    </rdf:RDF>
  </metadata>
  <defs
     id="defs6" />
  <sodipodi:namedview
     pagecolor="#ffffff"
     bordercolor="#666666"
     borderopacity="1"
     objecttolerance="10"
     gridtolerance="10"
     guidetolerance="10"
     inkscape:pageopacity="0"
     inkscape:pageshadow="2"
     inkscape:window-width="1366"
     inkscape:window-height="721"
     id="namedview4"
     showgrid="false"
     inkscape:zoom="0.921875"
     inkscape:cx="197.66255"
     inkscape:cy="81.529498"
     inkscape:window-x="-4"
     inkscape:window-y="-4"
     inkscape:window-maximized="1"
     inkscape:current-layer="svg2" />
  <g
     id="g4382"
     transform="matrix(1.0091673,0,0,1.0100554,-0.01249132,-3.0015986)">
    <path
       inkscape:connector-curvature="0"
       id="path4372"
       d="M 125.61702,295.93498 C 106.99925,292.50054 92.36088,287.30633 77.84835,278.98499 16.98805,244.08831 -10.86235,175.35635 8.5640605,107.99836 11.55986,97.610896 19.54746,80.040796 25.47825,70.792726 55.94397,23.286446 111.99144,-3.2233239 167.40818,3.6615661 c 49.07745,6.09731 90.9607,35.2206999 113.79812,79.1291999 28.68594,55.153154 18.96931,123.306074 -24.06094,168.764554 -22.73707,24.02014 -50.11705,38.557 -83.78033,44.48151 -10.70917,1.88473 -37.28626,1.82804 -47.74801,-0.10186 l 0,10e-6 z"
       style="opacity:0.93999999;fill:#162d50;fill-opacity:1;fill-rule:nonzero;stroke:#162d50;stroke-width:2.16949153;stroke-miterlimit:4;stroke-opacity:1;stroke-dasharray:none" />
    <path
       inkscape:connector-curvature="0"
       id="path2987"
       d="m 121.76999,249.87742 c -7.24675,-0.73268 -17.61863,-4.47414 -24.982529,-9.01195 -1.82779,-1.12634 -4.33758,-2.48189 -5.57731,-3.01234 -1.23975,-0.53044 -4.13644,-4.17031 -6.43708,-8.08858 -5.35899,-9.12697 -5.6381,-15.28414 -1.12983,-24.92506 4.5411,-9.71118 12.59334,-16.08093 26.151449,-20.68723 13.12659,-4.45967 21.04109,-6.20787 34.37693,-7.59336 5.82831,-0.6055 10.82687,-1.2937 11.10789,-1.52933 0.28103,-0.2356 -1.16879,-3.07022 -3.22181,-6.29912 -3.57847,-5.62803 -3.70531,-6.17858 -3.06852,-13.31846 l 0.66426,-7.44775 -11.77364,-0.62284 c -13.10661,-0.69338 -18.74352,-2.51242 -27.90929,-9.00632 -9.06386,-6.42171 -14.616009,-16.16724 -15.134989,-26.5661 l -0.22767,-4.56224 -22.65323,-0.26005 -22.65324,-0.26005 33.12229,-28.69267 33.122279,-28.69267 67.57633,0.0438 67.57634,0.0438 -5.8562,4.614 -5.85621,4.61401 0,8.36242 c 0,5.20263 0.44301,8.36242 1.17239,8.36242 0.64481,0 1.89971,1.50508 2.78868,3.34463 2.3236,4.80836 2.36163,57.86477 0.0449,62.6589 -1.68277,3.48222 -4.84973,4.91214 -8.92203,4.02843 -4.42932,-0.96118 -5.12316,-5.76808 -5.12316,-35.49263 0,-22.34984 0.32347,-28.26528 1.74244,-31.86601 0.95835,-2.43183 1.58579,-6.3067 1.39433,-8.61083 l -0.3481,-4.18932 -15.27393,13.25124 -15.27391,13.25125 1.74719,4.43358 c 1.22726,3.11423 1.59415,6.63302 1.23289,11.8247 -0.6183,8.88552 -4.80144,16.73218 -12.25597,22.98949 -20.83416,17.48817 -19.8537,16.42994 -19.8537,21.42857 0,3.55437 0.7057,5.41242 3.06754,8.07633 1.68714,1.90295 4.07143,3.88291 5.29845,4.39991 1.227,0.51705 5.07216,3.15302 8.54477,5.8578 3.47259,2.70475 6.73532,4.95055 7.25051,4.99061 0.51519,0.0401 3.63854,2.75263 6.94079,6.02788 9.97331,9.89178 12.60943,21.85903 7.81891,35.49569 -3.9604,11.27359 -12.60543,18.78575 -30.25648,26.29157 -11.38539,4.84145 -14.17361,5.6251 -22.80901,6.41062 -11.32045,1.0298 -25.55865,1.00351 -36.14377,-0.0667 l 0,3e-5 z m 52.42182,-9.9361 c 9.73525,-2.92727 15.49439,-6.79965 19.44392,-13.07389 8.46276,-13.44391 3.24771,-25.70657 -16.38122,-38.51889 l -10.59599,-6.91629 -13.03098,0 c -11.55033,0 -14.17967,0.33275 -23.14063,2.92852 -23.36015,6.76687 -31.408959,18.42487 -25.36545,36.73963 5.62338,17.0416 42.02835,26.9721 69.07035,18.84092 l 0,0 z m -4.14472,-101.14357 c 8.1527,-4.76998 11.51894,-11.25732 11.40742,-21.98429 -0.0859,-8.25906 -2.95857,-19.73773 -6.60039,-26.37332 -3.25693,-5.93433 -12.17825,-14.53332 -17.8924,-17.24594 -6.16858,-2.92835 -13.39254,-3.46304 -20.81381,-1.54057 -5.05289,1.30894 -13.59382,7.44952 -16.03222,11.52651 -2.28383,3.81854 -3.19771,16.24322 -1.81577,24.68596 2.56257,15.65562 15.1603,31.42502 27.24388,34.10298 2.00609,0.44459 7.11811,0.62781 11.36005,0.40717 6.44503,-0.33524 8.60518,-0.92338 13.14324,-3.5785 z"
       style="opacity:0.93999999;fill:#ffffff;fill-opacity:1;fill-rule:nonzero;stroke:#162d50;stroke-width:2.07443643;stroke-miterlimit:4;stroke-opacity:1;stroke-dasharray:none" />
  </g>
</svg>
