<?xml version="1.0" encoding="UTF-8" standalone="no"?>
<!-- Created with Inkscape (http://www.inkscape.org/) -->

<svg
   xmlns:dc="http://purl.org/dc/elements/1.1/"
   xmlns:cc="http://creativecommons.org/ns#"
   xmlns:rdf="http://www.w3.org/1999/02/22-rdf-syntax-ns#"
   xmlns:svg="http://www.w3.org/2000/svg"
   xmlns="http://www.w3.org/2000/svg"
   xmlns:sodipodi="http://sodipodi.sourceforge.net/DTD/sodipodi-0.dtd"
   xmlns:inkscape="http://www.inkscape.org/namespaces/inkscape"
   id="svg2"
   version="1.1"
   inkscape:version="0.48.4 r9939"
   width="400"
   height="400"
   sodipodi:docname="linkedin.svg">
  <metadata
     id="metadata8">
    <rdf:RDF>
      <cc:Work
         rdf:about="">
        <dc:format>image/svg+xml</dc:format>
        <dc:type
           rdf:resource="http://purl.org/dc/dcmitype/StillImage" />
        <dc:title />
      </cc:Work>
    </rdf:RDF>
  </metadata>
  <defs
     id="defs6" />
  <sodipodi:namedview
     pagecolor="#ffffff"
     bordercolor="#666666"
     borderopacity="1"
     objecttolerance="10"
     gridtolerance="10"
     guidetolerance="10"
     inkscape:pageopacity="0"
     inkscape:pageshadow="2"
     inkscape:window-width="1366"
     inkscape:window-height="721"
     id="namedview4"
     showgrid="false"
     inkscape:zoom="0.4609375"
     inkscape:cx="-558.25193"
     inkscape:cy="121.49153"
     inkscape:window-x="-4"
     inkscape:window-y="-4"
     inkscape:window-maximized="1"
     inkscape:current-layer="svg2" />
  <path
     style="fill:#162d50;fill-opacity:1;fill-rule:nonzero;stroke:#162d50;stroke-width:4.21172285;stroke-miterlimit:4;stroke-opacity:1;stroke-dasharray:none"
     d="M 164.4914,396.67284 C 132.65425,390.89653 93.736345,372.04789 69.689785,350.75878 59.418885,341.66565 38.24019,316.64252 30.952504,304.98978 20.814337,288.77922 12.531636,269.08921 7.0645829,248.20238 2.9937089,232.64957 2.1047939,223.9684 2.1058619,199.77516 c 9.71e-4,-25.9907 0.704623,-31.9547 5.947367,-50.42059 C 28.17301,78.489168 80.436235,26.967541 151.63818,7.8070345 c 17.65979,-4.752258 25.39893,-5.663672 48.40143,-5.700086 23.19142,-0.03669 30.68923,0.833578 49.00704,5.688294 68.33173,18.1097955 117.83638,65.0491955 141.1208,133.8082175 7.49281,22.12622 7.57942,22.77989 7.70368,58.1717 0.12359,35.18243 0,36.17178 -7.06983,57.90211 -11.22337,34.48393 -27.59825,61.49437 -51.47107,84.90189 -18.18524,17.83075 -44.49731,35.15001 -64.52081,42.46919 -30.44467,11.12843 -34.31784,11.85699 -67.39814,12.67814 -17.95529,0.44572 -37.26924,-0.0284 -42.91988,-1.05365 l 0,0 z m -16.05351,-170.57855 0,-71.58805 -23.16811,0 -23.1681,0 0,71.58805 0,71.58808 23.1681,0 23.16811,0 0,-71.58808 z m 69.50434,30.57283 c 0,-31.89444 0.71623,-42.80476 3.22082,-49.06236 7.43529,-18.57678 33.76774,-20.79515 41.9608,-3.53497 2.61566,5.51036 3.2608,15.45022 3.2608,50.24101 l 0,43.37157 23.39482,0 23.39482,0 -0.87552,-55.27021 c -0.9541,-60.2306 -1.56372,-63.62014 -13.78261,-76.6331 -9.12467,-9.71767 -18.74841,-13.88725 -34.68354,-15.02706 -12.32397,-0.8815 -15.68038,-0.27464 -25.76724,4.65885 -6.37864,3.11982 -13.51579,8.11029 -15.86034,11.08995 l -4.26281,5.41758 0,-8.70607 0,-8.70607 -22.11502,0 -22.11502,0 0,71.58805 0,71.58808 22.11502,0 22.11502,0 0,-41.01525 z M 136.7816,134.66956 c 8.90211,-3.71838 13.7625,-12.73749 13.7625,-25.53824 0,-8.32635 -1.07062,-10.860272 -7.16107,-16.948812 -6.28459,-6.28263 -8.48479,-7.15881 -17.97672,-7.15881 -17.48541,0 -27.517015,9.76571 -27.517015,26.787622 0,5.84473 1.73921,10.15625 6.355105,15.75439 8.32376,10.09497 19.52254,12.54001 32.5372,7.10385 z"
     id="path2987"
     inkscape:connector-curvature="0" />
</svg>
