<?xml version="1.0" encoding="UTF-8" standalone="no"?>
<!-- Created with Inkscape (http://www.inkscape.org/) -->

<svg
   xmlns:dc="http://purl.org/dc/elements/1.1/"
   xmlns:cc="http://creativecommons.org/ns#"
   xmlns:rdf="http://www.w3.org/1999/02/22-rdf-syntax-ns#"
   xmlns:svg="http://www.w3.org/2000/svg"
   xmlns="http://www.w3.org/2000/svg"
   xmlns:sodipodi="http://sodipodi.sourceforge.net/DTD/sodipodi-0.dtd"
   xmlns:inkscape="http://www.inkscape.org/namespaces/inkscape"
   id="svg2"
   version="1.1"
   inkscape:version="0.48.4 r9939"
   width="300"
   height="300"
   sodipodi:docname="GitHub-Mark.png">
  <metadata
     id="metadata8">
    <rdf:RDF>
      <cc:Work
         rdf:about="">
        <dc:format>image/svg+xml</dc:format>
        <dc:type
           rdf:resource="http://purl.org/dc/dcmitype/StillImage" />
        <dc:title></dc:title>
      </cc:Work>
    </rdf:RDF>
  </metadata>
  <defs
     id="defs6" />
  <sodipodi:namedview
     pagecolor="#ffffff"
     bordercolor="#666666"
     borderopacity="1"
     objecttolerance="10"
     gridtolerance="10"
     guidetolerance="10"
     inkscape:pageopacity="0"
     inkscape:pageshadow="2"
     inkscape:window-width="1366"
     inkscape:window-height="721"
     id="namedview4"
     showgrid="false"
     inkscape:zoom="1.6857143"
     inkscape:cx="201.70954"
     inkscape:cy="144.34987"
     inkscape:window-x="-4"
     inkscape:window-y="-4"
     inkscape:window-maximized="1"
     inkscape:current-layer="svg2" />
  <path
     style="opacity:0.93999999;fill:#162d50;fill-opacity:1;fill-rule:nonzero;stroke:#162d50;stroke-width:3.42653155;stroke-miterlimit:4;stroke-opacity:1;stroke-dasharray:none"
     d="m 190.92244,296.40151 c -3.40821,-2.47036 -3.58554,-4.00149 -3.58554,-30.96031 0,-26.36025 -0.2809,-28.93561 -3.98119,-36.49919 l -3.98119,-8.13781 3.56552,0 c 6.22493,0 26.29534,-6.64299 33.77477,-11.17892 26.6208,-16.14426 37.32431,-59.58831 22.8063,-92.56744 -1.74823,-3.97129 -4.22817,-8.12193 -5.51098,-9.22366 -1.76203,-1.51328 -2.14124,-5.4205 -1.55067,-15.977468 1.03007,-18.41372 -1.81209,-29.64398 -7.50232,-29.64398 -5.95513,0 -23.41169,6.44669 -31.15641,11.50603 -6.27794,4.10113 -7.34508,4.27109 -15.44538,2.45993 -11.37743,-2.54391 -47.38229,-2.48898 -57.26946,0.0874 -7.35128,1.91555 -8.24923,1.73073 -17.31505,-3.56392 -10.465186,-6.11193 -22.621066,-10.44108 -29.400356,-10.47053 -3.84152,-0.0167 -4.56949,1.00089 -6.31537,8.8279 -2.21416,9.9264 -2.40923,23.36237 -0.41558,28.622648 0.92897,2.45108 0.20313,5.03718 -2.4457,8.71382 -7.66739,10.64249 -9.71357,17.09305 -10.50057,33.10298 -1.62639,33.08533 7.19384,54.41548 28.09155,67.93444 7.5962,4.91405 26.558246,11.37081 33.393546,11.37081 4.36441,0 4.8984,2.11075 1.313,5.19003 -1.36487,1.17219 -2.96875,4.81856 -3.56419,8.10304 -1.37189,7.56755 -5.62849,9.94377 -17.812586,9.94377 -11.47691,0 -15.64124,-2.48319 -25.13306,-14.98696 -8.22388,-10.83349 -17.13826,-16.94249 -24.74076,-16.95477 -7.16866,-0.0122 -9.27695,4.69676 -3.83897,8.57337 7.12632,5.08019 13.4968,12.99145 18.18224,22.57985 7.90787,16.18289 23.9828,24.37619 42.766236,21.79768 l 8.20217,-1.12596 0,14.02409 c 0,7.71326 -0.45999,15.2646 -1.02222,16.78077 -1.47768,3.98488 -7.38761,3.40381 -19.496986,-1.91701 C 67.465834,282.45673 44.097804,263.2721 29.858194,242.58878 9.5474847,213.08706 1.8303639,188.08279 1.9146539,152.0488 1.9701539,128.31344 4.0508739,117.17597 12.511684,95.32528 26.307964,59.695302 57.624284,27.576922 93.188754,12.581942 115.1851,3.3076616 130.21793,0.66738156 155.23711,1.6841016 c 11.88589,0.48301 25.52542,2.12111 31.13319,3.7390598 14.17164,4.0888403 34.34104,13.4244206 45.84925,21.2217406 18.17532,12.31458 40.05068,37.61992 50.22428,58.09924 9.05652,18.230678 16.04362,48.112308 16.04362,68.613548 0,40.14872 -18.14254,82.6956 -46.8955,109.97671 -4.13805,3.92623 -8.35222,7.96024 -9.36482,8.96449 -6.06527,6.01515 -25.76093,17.59118 -39.93703,23.47278 -6.97115,2.89231 -8.15579,2.95794 -11.36766,0.62988 l 0,0 z"
     id="path2997"
     inkscape:connector-curvature="0" />
</svg>
