<?xml version="1.0" encoding="UTF-8" standalone="no"?>
<!-- Created with Inkscape (http://www.inkscape.org/) -->

<svg
   xmlns:dc="http://purl.org/dc/elements/1.1/"
   xmlns:cc="http://creativecommons.org/ns#"
   xmlns:rdf="http://www.w3.org/1999/02/22-rdf-syntax-ns#"
   xmlns:svg="http://www.w3.org/2000/svg"
   xmlns="http://www.w3.org/2000/svg"
   xmlns:sodipodi="http://sodipodi.sourceforge.net/DTD/sodipodi-0.dtd"
   xmlns:inkscape="http://www.inkscape.org/namespaces/inkscape"
   width="400"
   height="400"
   id="svg2"
   version="1.1"
   inkscape:version="0.48.4 r9939"
   sodipodi:docname="orcid.svg">
  <defs
     id="defs4" />
  <sodipodi:namedview
     id="base"
     pagecolor="#ffffff"
     bordercolor="#666666"
     borderopacity="1.0"
     inkscape:pageopacity="0.0"
     inkscape:pageshadow="2"
     inkscape:zoom="0.24748737"
     inkscape:cx="360.6884"
     inkscape:cy="611.5663"
     inkscape:document-units="px"
     inkscape:current-layer="layer1"
     showgrid="false"
     inkscape:window-width="1366"
     inkscape:window-height="721"
     inkscape:window-x="-4"
     inkscape:window-y="-4"
     inkscape:window-maximized="1" />
  <metadata
     id="metadata7">
    <rdf:RDF>
      <cc:Work
         rdf:about="">
        <dc:format>image/svg+xml</dc:format>
        <dc:type
           rdf:resource="http://purl.org/dc/dcmitype/StillImage" />
        <dc:title />
      </cc:Work>
    </rdf:RDF>
  </metadata>
  <g
     inkscape:label="Layer 1"
     inkscape:groupmode="layer"
     id="layer1"
     transform="translate(0,-652.36218)">
    <g
       id="g3137"
       transform="matrix(1.3271103,0,0,1.3300226,-282.61015,205.0711)">
      <path
         inkscape:connector-curvature="0"
         id="path2996-7"
         d="m 352.22635,635.24818 c 0,-0.89027 -1.38888,-1.07143 -8.21428,-1.07143 -6.8254,0 -8.21429,-0.18115 -8.21429,-1.07142 0,-0.86835 -1.15079,-1.07143 -6.07143,-1.07143 -5.59523,0 -6.07143,-0.11205 -6.07143,-1.42857 0,-1.21693 -0.47619,-1.42858 -3.21428,-1.42858 -2.38095,0 -3.21429,-0.27777 -3.21429,-1.07142 0,-0.80953 -0.87301,-1.07143 -3.57143,-1.07143 -2.69842,0 -3.57144,-0.26191 -3.57144,-1.07143 0,-0.7483 -0.75397,-1.07143 -2.5,-1.07143 -1.74602,0 -2.5,-0.32313 -2.5,-1.07143 0,-0.71428 -0.71428,-1.07143 -2.14285,-1.07143 -1.66667,0 -2.14286,-0.31745 -2.14286,-1.42857 0,-1.15646 -0.47619,-1.42857 -2.5,-1.42857 -1.74603,0 -2.5,-0.32313 -2.5,-1.07143 0,-0.7483 -0.75397,-1.07143 -2.5,-1.07143 -1.74603,0 -2.5,-0.32313 -2.5,-1.07143 0,-0.71428 -0.71429,-1.07142 -2.14286,-1.07142 -1.66666,0 -2.14285,-0.31746 -2.14285,-1.42858 0,-1.15646 -0.4762,-1.42857 -2.5,-1.42857 -1.74604,0 -2.5,-0.32313 -2.5,-1.07143 0,-0.58928 -0.48215,-1.07142 -1.07143,-1.07142 -0.58929,0 -1.07143,-0.48215 -1.07143,-1.07143 0,-0.58929 -0.48214,-1.07143 -1.07143,-1.07143 -0.58929,0 -1.07143,-0.48214 -1.07143,-1.07143 0,-0.7483 -0.75397,-1.07143 -2.5,-1.07143 -2.02381,0 -2.5,-0.27211 -2.5,-1.42857 0,-0.79365 -0.47619,-1.42857 -1.07143,-1.42857 -0.58928,0 -1.07143,-0.48214 -1.07143,-1.07143 0,-0.58929 -0.48214,-1.07143 -1.07142,-1.07143 -0.58929,0 -1.07143,-0.48214 -1.07143,-1.07143 0,-0.59523 -0.63492,-1.07143 -1.42857,-1.07143 -0.95239,0 -1.42858,-0.47619 -1.42858,-1.42857 0,-0.79365 -0.47619,-1.42857 -1.07142,-1.42857 -0.58929,0 -1.07143,-0.48214 -1.07143,-1.07143 0,-0.71428 -0.71429,-1.07143 -2.14286,-1.07143 -1.42857,0 -2.14286,-0.35714 -2.14286,-1.07142 0,-0.59524 -0.63492,-1.07143 -1.42857,-1.07143 -1.15646,0 -1.42857,-0.4762 -1.42857,-2.5 0,-1.74603 -0.32313,-2.5 -1.07143,-2.5 -0.58928,0 -1.07143,-0.48215 -1.07143,-1.07143 0,-0.58929 -0.48214,-1.07143 -1.07143,-1.07143 -0.58928,0 -1.07142,-0.48214 -1.07142,-1.07143 0,-0.59523 -0.63493,-1.07143 -1.42858,-1.07143 -0.79365,0 -1.42857,-0.47619 -1.42857,-1.07143 0,-0.58928 -0.48214,-1.07142 -1.07143,-1.07142 -0.59523,0 -1.07142,-0.63493 -1.07142,-1.42858 0,-0.79365 -0.4762,-1.42857 -1.07143,-1.42857 -0.71429,0 -1.07143,-0.71428 -1.07143,-2.14285 0,-1.42858 -0.35714,-2.14286 -1.07143,-2.14286 -0.59524,0 -1.07143,-0.63492 -1.07143,-1.42857 0,-0.95238 -0.47619,-1.42857 -1.42857,-1.42857 -0.79365,0 -1.42857,-0.4762 -1.42857,-1.07143 0,-0.58929 -0.48214,-1.07143 -1.07143,-1.07143 -0.71429,0 -1.07143,-0.71429 -1.07143,-2.14286 0,-1.42857 -0.35714,-2.14286 -1.07143,-2.14286 -0.7483,0 -1.07143,-0.75397 -1.07143,-2.5 0,-2.0238 -0.2721,-2.5 -1.42857,-2.5 -1.15646,0 -1.42857,-0.47619 -1.42857,-2.5 0,-1.74602 -0.32313,-2.5 -1.07143,-2.5 -0.71428,0 -1.07143,-0.71428 -1.07143,-2.14285 0,-1.42857 -0.35714,-2.14286 -1.07142,-2.14286 -0.7483,0 -1.07143,-0.75397 -1.07143,-2.5 0,-1.74603 -0.32313,-2.5 -1.07143,-2.5 -0.71429,0 -1.07143,-0.71429 -1.07143,-2.14286 0,-1.66666 -0.31746,-2.14285 -1.42857,-2.14285 -1.2381,0 -1.42857,-0.4762 -1.42857,-3.57143 0,-2.69842 -0.26191,-3.57143 -1.07143,-3.57143 -0.80953,0 -1.07143,-0.87302 -1.07143,-3.57143 0,-2.69841 -0.26191,-3.57143 -1.07143,-3.57143 -0.86309,0 -1.07143,-1.11111 -1.07143,-5.71428 0,-5.2381 -0.11905,-5.71429 -1.42857,-5.71429 -1.34575,0 -1.42857,-0.47619 -1.42857,-8.21429 0,-6.8254 -0.18116,-8.21428 -1.07143,-8.21428 -0.90909,0 -1.07143,-1.78572 -1.07143,-11.78572 0,-10 0.16234,-11.78571 1.07143,-11.78571 0.89027,0 1.07143,-1.38889 1.07143,-8.21429 0,-7.73809 0.0828,-8.21428 1.42857,-8.21428 1.30952,0 1.42857,-0.47619 1.42857,-5.71429 0,-4.60317 0.20834,-5.71428 1.07143,-5.71428 0.80952,0 1.07143,-0.87302 1.07143,-3.57143 0,-2.69842 0.2619,-3.57143 1.07143,-3.57143 0.80952,0 1.07143,-0.87301 1.07143,-3.57143 0,-3.09523 0.19047,-3.57143 1.42857,-3.57143 1.11111,0 1.42857,-0.47619 1.42857,-2.14285 0,-1.42858 0.35714,-2.14286 1.07143,-2.14286 0.7483,0 1.07143,-0.75397 1.07143,-2.5 0,-1.74603 0.32313,-2.5 1.07143,-2.5 0.71428,0 1.07142,-0.71429 1.07142,-2.14286 0,-1.42857 0.35715,-2.14286 1.07143,-2.14286 0.7483,0 1.07143,-0.75397 1.07143,-2.5 0,-2.0238 0.27211,-2.5 1.42857,-2.5 1.15647,0 1.42857,-0.47619 1.42857,-2.5 0,-1.74602 0.32313,-2.5 1.07143,-2.5 0.71429,0 1.07143,-0.71428 1.07143,-2.14285 0,-1.42857 0.35714,-2.14286 1.07143,-2.14286 0.58929,0 1.07143,-0.48214 1.07143,-1.07143 0,-0.59524 0.63492,-1.07143 1.42857,-1.07143 0.95238,0 1.42857,-0.47619 1.42857,-1.42857 0,-0.79365 0.47619,-1.42857 1.07143,-1.42857 0.71429,0 1.07143,-0.71429 1.07143,-2.14286 0,-1.42857 0.35714,-2.14285 1.07143,-2.14285 0.59523,0 1.07143,-0.63492 1.07143,-1.42858 0,-0.79365 0.47619,-1.42857 1.07142,-1.42857 0.58929,0 1.07143,-0.48214 1.07143,-1.07143 0,-0.59523 0.63492,-1.07142 1.42857,-1.07142 0.79365,0 1.42858,-0.47619 1.42858,-1.07143 0,-0.58929 0.48214,-1.07143 1.07142,-1.07143 0.58929,0 1.07143,-0.48214 1.07143,-1.07143 0,-0.58929 0.48215,-1.07143 1.07143,-1.07143 0.7483,0 1.07143,-0.75397 1.07143,-2.5 0,-2.02381 0.27211,-2.5 1.42857,-2.5 0.79365,0 1.42857,-0.47619 1.42857,-1.07143 0,-0.71428 0.71429,-1.07143 2.14286,-1.07143 1.66667,0 2.14286,-0.31746 2.14286,-1.42857 0,-0.79365 0.47619,-1.42857 1.07143,-1.42857 0.58928,0 1.07142,-0.48214 1.07142,-1.07143 0,-0.59523 0.63492,-1.07143 1.42858,-1.07143 0.79365,0 1.42857,-0.47619 1.42857,-1.07142 0,-0.58929 0.48214,-1.07143 1.07143,-1.07143 0.58928,0 1.07142,-0.48215 1.07142,-1.07143 0,-0.58929 0.48215,-1.07143 1.07143,-1.07143 0.59524,0 1.07143,-0.63492 1.07143,-1.42857 0,-1.15646 0.47619,-1.42857 2.5,-1.42857 1.74603,0 2.5,-0.32313 2.5,-1.07143 0,-0.58929 0.48214,-1.07143 1.07143,-1.07143 0.58929,0 1.07143,-0.48214 1.07143,-1.07143 0,-0.58928 0.48214,-1.07143 1.07143,-1.07143 0.59523,0 1.07143,-0.63492 1.07143,-1.42857 0,-1.15646 0.47619,-1.42857 2.5,-1.42857 1.74602,0 2.5,-0.32313 2.5,-1.07143 0,-0.71428 0.71428,-1.07143 2.14285,-1.07143 1.42857,0 2.14286,-0.35714 2.14286,-1.07143 0,-0.74829 0.75397,-1.07142 2.5,-1.07142 1.74603,0 2.5,-0.32313 2.5,-1.07143 0,-0.7483 0.75397,-1.07143 2.5,-1.07143 2.02381,0 2.5,-0.27211 2.5,-1.42857 0,-1.11111 0.47619,-1.42857 2.14286,-1.42857 1.42857,0 2.14285,-0.35715 2.14285,-1.07143 0,-0.7483 0.75398,-1.07143 2.5,-1.07143 1.74603,0 2.5,-0.32313 2.5,-1.07143 0,-0.80952 0.87302,-1.07143 3.57144,-1.07143 2.69842,0 3.57143,-0.2619 3.57143,-1.07143 0,-0.79365 0.83334,-1.07143 3.21429,-1.07143 2.73809,0 3.21428,-0.21164 3.21428,-1.42857 0,-1.31652 0.4762,-1.42857 6.07143,-1.42857 4.92064,0 6.07143,-0.20308 6.07143,-1.07143 0,-0.89027 1.38889,-1.07143 8.21429,-1.07143 6.8254,0 8.21428,-0.18116 8.21428,-1.07142 0,-0.90774 1.74602,-1.07143 11.42852,-1.07143 9.6826,0 11.4286,0.16369 11.4286,1.07143 0,0.89026 1.3889,1.07142 8.2143,1.07142 6.8254,0 8.2143,0.18116 8.2143,1.07143 0,0.86835 1.1508,1.07143 6.0714,1.07143 5.5953,0 6.0714,0.11205 6.0714,1.42857 0,1.21693 0.4762,1.42857 3.2143,1.42857 2.381,0 3.2143,0.27778 3.2143,1.07143 0,0.80953 0.873,1.07143 3.5714,1.07143 2.6985,0 3.5715,0.26191 3.5715,1.07143 0,0.7483 0.7539,1.07143 2.5,1.07143 1.746,0 2.5,0.32313 2.5,1.07143 0,0.71428 0.7143,1.07143 2.1428,1.07143 1.6667,0 2.1429,0.31746 2.1429,1.42857 0,1.15646 0.4762,1.42857 2.5,1.42857 1.746,0 2.5,0.32313 2.5,1.07143 0,0.71428 0.7143,1.07143 2.1428,1.07143 1.4286,0 2.1429,0.35714 2.1429,1.07142 0,0.7483 0.754,1.07143 2.5,1.07143 1.746,0 2.5,0.32313 2.5,1.07143 0,0.7483 0.754,1.07143 2.5,1.07143 2.0238,0 2.5,0.27211 2.5,1.42857 0,0.79365 0.4762,1.42857 1.0714,1.42857 0.5893,0 1.0715,0.48215 1.0715,1.07143 0,0.58929 0.4821,1.07143 1.0714,1.07143 0.5893,0 1.0714,0.48214 1.0714,1.07143 0,0.7483 0.754,1.07143 2.5,1.07143 2.0238,0 2.5,0.27211 2.5,1.42857 0,0.79365 0.4762,1.42857 1.0714,1.42857 0.5893,0 1.0715,0.48214 1.0715,1.07143 0,0.58928 0.4821,1.07143 1.0714,1.07143 0.5893,0 1.0714,0.48214 1.0714,1.07143 0,0.59523 0.635,1.07142 1.4286,1.07142 0.7937,0 1.4286,0.4762 1.4286,1.07143 0,0.58929 0.4821,1.07143 1.0714,1.07143 0.5952,0 1.0714,0.63492 1.0714,1.42857 0,1.11111 0.4762,1.42857 2.1429,1.42857 1.4286,0 2.1428,0.35715 2.1428,1.07143 0,0.59524 0.635,1.07143 1.4286,1.07143 1.1565,0 1.4286,0.47619 1.4286,2.5 0,1.74603 0.3231,2.5 1.0714,2.5 0.5893,0 1.0714,0.48214 1.0714,1.07143 0,0.58929 0.4822,1.07143 1.0715,1.07143 0.5893,0 1.0714,0.48214 1.0714,1.07143 0,0.59524 0.6349,1.07143 1.4286,1.07143 0.7936,0 1.4285,0.47619 1.4285,1.07142 0,0.58929 0.4822,1.07143 1.0715,1.07143 0.5952,0 1.0714,0.63492 1.0714,1.42857 0,0.79366 0.4762,1.42858 1.0714,1.42858 0.7143,0 1.0715,0.71428 1.0715,2.14285 0,1.42857 0.3571,2.14286 1.0714,2.14286 0.5952,0 1.0714,0.63492 1.0714,1.42857 0,0.95238 0.4762,1.42857 1.4286,1.42857 0.7936,0 1.4286,0.47619 1.4286,1.07143 0,0.58929 0.4821,1.07143 1.0714,1.07143 0.7143,0 1.0714,0.71429 1.0714,2.14286 0,1.42857 0.3572,2.14285 1.0714,2.14285 0.7483,0 1.0715,0.75398 1.0715,2.5 0,2.02381 0.2721,2.5 1.4285,2.5 1.1565,0 1.4286,0.4762 1.4286,2.5 0,1.74603 0.3231,2.5 1.0714,2.5 0.7143,0 1.0715,0.71429 1.0715,2.14286 0,1.42857 0.3571,2.14286 1.0714,2.14286 0.7483,0 1.0714,0.75397 1.0714,2.5 0,1.74603 0.3232,2.5 1.0715,2.5 0.7142,0 1.0714,0.71428 1.0714,2.14286 0,1.66666 0.3174,2.14285 1.4286,2.14285 1.2381,0 1.4285,0.4762 1.4285,3.57143 0,2.69842 0.2619,3.57143 1.0715,3.57143 0.8095,0 1.0714,0.87301 1.0714,3.57143 0,2.69841 0.2619,3.57143 1.0714,3.57143 0.8631,0 1.0714,1.11111 1.0714,5.71428 0,4.60317 0.2084,5.71429 1.0715,5.71429 0.8902,0 1.0714,1.38888 1.0714,8.21428 0,7.7381 0.083,8.21429 1.4286,8.21429 1.3708,0 1.4285,0.47619 1.4285,11.78571 0,11.30953 -0.058,11.78572 -1.4285,11.78572 -1.3458,0 -1.4286,0.47619 -1.4286,8.21428 0,6.8254 -0.1812,8.21429 -1.0714,8.21429 -0.8631,0 -1.0715,1.11111 -1.0715,5.71429 0,4.60317 -0.2083,5.71428 -1.0714,5.71428 -0.8095,0 -1.0714,0.87302 -1.0714,3.57143 0,2.69841 -0.2619,3.57143 -1.0714,3.57143 -0.8096,0 -1.0715,0.87301 -1.0715,3.57143 0,3.09523 -0.1904,3.57143 -1.4285,3.57143 -1.1112,0 -1.4286,0.47619 -1.4286,2.14285 0,1.42857 -0.3572,2.14286 -1.0714,2.14286 -0.7483,0 -1.0715,0.75397 -1.0715,2.5 0,1.74603 -0.3231,2.5 -1.0714,2.5 -0.7143,0 -1.0714,0.71429 -1.0714,2.14286 0,1.42857 -0.3572,2.14285 -1.0715,2.14285 -0.7483,0 -1.0714,0.75398 -1.0714,2.5 0,2.02381 -0.2721,2.5 -1.4286,2.5 -1.1564,0 -1.4285,0.4762 -1.4285,2.5 0,1.74603 -0.3232,2.5 -1.0715,2.5 -0.7142,0 -1.0714,0.71429 -1.0714,2.14286 0,1.42857 -0.3571,2.14286 -1.0714,2.14286 -0.5893,0 -1.0714,0.48214 -1.0714,1.07143 0,0.59523 -0.635,1.07143 -1.4286,1.07143 -0.9524,0 -1.4286,0.47619 -1.4286,1.42857 0,0.79365 -0.4762,1.42857 -1.0714,1.42857 -0.7143,0 -1.0714,0.71428 -1.0714,2.14286 0,1.42857 -0.3572,2.14285 -1.0715,2.14285 -0.5952,0 -1.0714,0.63492 -1.0714,1.42857 0,0.79365 -0.4762,1.42858 -1.0714,1.42858 -0.5893,0 -1.0715,0.48214 -1.0715,1.07142 0,0.59524 -0.6349,1.07143 -1.4285,1.07143 -0.7937,0 -1.4286,0.4762 -1.4286,1.07143 0,0.58929 -0.4821,1.07143 -1.0714,1.07143 -0.5893,0 -1.0715,0.48214 -1.0715,1.07143 0,0.58928 -0.4821,1.07143 -1.0714,1.07143 -0.7483,0 -1.0714,0.75397 -1.0714,2.5 0,2.0238 -0.2721,2.5 -1.4286,2.5 -0.7936,0 -1.4286,0.47619 -1.4286,1.07143 0,0.71428 -0.7142,1.07142 -2.1428,1.07142 -1.4286,0 -2.1429,0.35715 -2.1429,1.07143 0,0.58929 -0.4821,1.07143 -1.0714,1.07143 -0.5952,0 -1.0714,0.63492 -1.0714,1.42857 0,0.95238 -0.4762,1.42857 -1.4286,1.42857 -0.7936,0 -1.4286,0.4762 -1.4286,1.07143 0,0.58929 -0.4821,1.07143 -1.0714,1.07143 -0.5893,0 -1.0714,0.48214 -1.0714,1.07143 0,0.58929 -0.4822,1.07143 -1.0715,1.07143 -0.5952,0 -1.0714,0.63492 -1.0714,1.42857 0,1.15646 -0.4762,1.42857 -2.5,1.42857 -1.746,0 -2.5,0.32313 -2.5,1.07143 0,0.58929 -0.4821,1.07143 -1.0714,1.07143 -0.5893,0 -1.0714,0.48214 -1.0714,1.07143 0,0.58928 -0.4822,1.07143 -1.0715,1.07143 -0.5893,0 -1.0714,0.48214 -1.0714,1.07142 0,0.7483 -0.754,1.07143 -2.5,1.07143 -2.0238,0 -2.5,0.27211 -2.5,1.42857 0,1.15647 -0.4762,1.42858 -2.5,1.42858 -1.746,0 -2.5,0.32312 -2.5,1.07142 0,0.71429 -0.7143,1.07143 -2.1429,1.07143 -1.4285,0 -2.1428,0.35715 -2.1428,1.07143 0,0.7483 -0.754,1.07143 -2.5,1.07143 -2.0238,0 -2.5,0.27211 -2.5,1.42857 0,1.11112 -0.4762,1.42857 -2.1429,1.42857 -1.4285,0 -2.1428,0.35715 -2.1428,1.07143 0,0.7483 -0.754,1.07143 -2.5,1.07143 -1.7461,0 -2.5,0.32313 -2.5,1.07143 0,0.80952 -0.873,1.07143 -3.5715,1.07143 -2.6984,0 -3.5714,0.2619 -3.5714,1.07143 0,0.79365 -0.8333,1.07142 -3.2143,1.07142 -2.7381,0 -3.2143,0.21165 -3.2143,1.42858 0,1.31652 -0.4761,1.42857 -6.0714,1.42857 -4.9206,0 -6.0714,0.20308 -6.0714,1.07143 0,0.89027 -1.3889,1.07142 -8.2143,1.07142 -6.8254,0 -8.2143,0.18116 -8.2143,1.07143 0,0.90774 -1.746,1.07143 -11.4286,1.07143 -9.6825,0 -11.42852,-0.16369 -11.42852,-1.07143 z m -35,-142.85714 0,-64.64286 -10.71429,0 -10.71429,0 0,64.64286 0,64.64286 10.71429,0 10.71429,0 0,-64.64286 z m 81.42852,63.57143 c 0,-0.86835 1.1508,-1.07143 6.0715,-1.07143 4.9206,0 6.0714,-0.20308 6.0714,-1.07143 0,-0.80952 0.873,-1.07143 3.5714,-1.07143 3.0953,0 3.5715,-0.19048 3.5715,-1.42857 0,-1.23809 0.4762,-1.42857 3.5714,-1.42857 2.6984,0 3.5714,-0.26191 3.5714,-1.07143 0,-0.58928 0.4822,-1.07143 1.0714,-1.07143 0.5893,0 1.0715,-0.48214 1.0715,-1.07143 0,-0.71428 0.7143,-1.07142 2.1428,-1.07142 1.6667,0 2.1429,-0.31746 2.1429,-1.42858 0,-0.95237 0.4762,-1.42857 1.4286,-1.42857 0.7936,0 1.4285,-0.47619 1.4285,-1.07143 0,-0.58928 0.4822,-1.07142 1.0715,-1.07142 0.5892,0 1.0714,-0.48215 1.0714,-1.07143 0,-0.7483 0.754,-1.07143 2.5,-1.07143 2.3809,0 2.5,-0.11905 2.5,-2.5 0,-1.74603 0.3231,-2.5 1.0714,-2.5 0.5893,0 1.0714,-0.48214 1.0714,-1.07143 0,-0.58929 0.4822,-1.07143 1.0715,-1.07143 0.5893,0 1.0714,-0.48214 1.0714,-1.07143 0,-0.58928 0.4821,-1.07143 1.0714,-1.07143 0.7483,0 1.0715,-0.75397 1.0715,-2.5 0,-2.0238 0.2721,-2.5 1.4285,-2.5 0.7937,0 1.4286,-0.47619 1.4286,-1.07142 0,-0.58929 0.4821,-1.07143 1.0714,-1.07143 0.8096,0 1.0715,-0.87302 1.0715,-3.57143 0,-2.69842 0.2619,-3.57143 1.0714,-3.57143 0.8095,0 1.0714,-0.87301 1.0714,-3.57143 0,-2.69841 0.2619,-3.57143 1.0714,-3.57143 0.9214,0 1.0715,-2.30158 1.0715,-16.42857 0,-14.12698 -0.1501,-16.42857 -1.0715,-16.42857 -0.8095,0 -1.0714,-0.87301 -1.0714,-3.57143 0,-2.69841 -0.2619,-3.57143 -1.0714,-3.57143 -0.7483,0 -1.0714,-0.75397 -1.0714,-2.5 0,-1.74603 -0.3232,-2.5 -1.0715,-2.5 -0.7143,0 -1.0714,-0.71428 -1.0714,-2.14285 0,-1.66667 -0.3175,-2.14286 -1.4286,-2.14286 -1.1564,0 -1.4285,-0.47619 -1.4285,-2.5 0,-1.74603 -0.3232,-2.5 -1.0715,-2.5 -0.5893,0 -1.0714,-0.48214 -1.0714,-1.07143 0,-0.58929 -0.4821,-1.07143 -1.0714,-1.07143 -0.5893,0 -1.0715,-0.48214 -1.0715,-1.07143 0,-0.58928 -0.4821,-1.07143 -1.0714,-1.07143 -0.5952,0 -1.0714,-0.63492 -1.0714,-1.42857 0,-0.95238 -0.4762,-1.42857 -1.4286,-1.42857 -0.7936,0 -1.4286,-0.47619 -1.4286,-1.07143 0,-0.58928 -0.4821,-1.07143 -1.0714,-1.07143 -0.5893,0 -1.0714,-0.48214 -1.0714,-1.07142 0,-0.58929 -0.4822,-1.07143 -1.0714,-1.07143 -0.5893,0 -1.0715,-0.48215 -1.0715,-1.07143 0,-0.7483 -0.7539,-1.07143 -2.5,-1.07143 -2.0238,0 -2.5,-0.27211 -2.5,-1.42857 0,-0.79365 -0.4762,-1.42857 -1.0714,-1.42857 -0.5893,0 -1.0714,-0.48215 -1.0714,-1.07143 0,-0.7483 -0.754,-1.07143 -2.5,-1.07143 -1.7461,0 -2.5,-0.32313 -2.5,-1.07143 0,-0.80952 -0.873,-1.07143 -3.5715,-1.07143 -3.0952,0 -3.5714,-0.19048 -3.5714,-1.42857 0,-1.28205 -0.4762,-1.42857 -4.6428,-1.42857 -3.6508,0 -4.6429,-0.22894 -4.6429,-1.07143 0,-0.93685 -4.127,-1.07143 -32.8571,-1.07143 l -32.85718,0 0,64.64286 0,64.64286 29.28568,0 c 25.5556,0 29.2857,-0.13647 29.2857,-1.07143 z M 312.22634,415.24818 c 0,-0.58928 0.48214,-1.07143 1.07144,-1.07143 0.58929,0 1.07143,-0.48214 1.07143,-1.07142 0,-0.59524 0.63492,-1.07143 1.42857,-1.07143 0.95238,0 1.42857,-0.4762 1.42857,-1.42857 0,-0.79365 0.47619,-1.42858 1.07143,-1.42858 0.86309,0 1.07143,-1.11111 1.07143,-5.71428 0,-4.60318 -0.20834,-5.71429 -1.07143,-5.71429 -0.7483,0 -1.07143,-0.75397 -1.07143,-2.5 0,-2.38095 -0.11905,-2.5 -2.5,-2.5 -1.74603,0 -2.50001,-0.32313 -2.50001,-1.07143 0,-0.88095 -1.26984,-1.07142 -7.14286,-1.07142 -5.87301,0 -7.14285,0.19047 -7.14285,1.07142 0,0.58929 -0.48215,1.07143 -1.07143,1.07143 -0.58929,0 -1.07143,0.48215 -1.07143,1.07143 0,0.59524 -0.63492,1.07143 -1.42857,1.07143 -1.34921,0 -1.42857,0.47619 -1.42857,8.57143 0,8.09523 0.0794,8.57143 1.42857,8.57143 0.79365,0 1.42857,0.47619 1.42857,1.07143 0,0.71428 0.71429,1.07142 2.14286,1.07142 1.42857,0 2.14285,0.35715 2.14285,1.07143 0,0.86835 1.1508,1.07143 6.07143,1.07143 4.92064,0 6.07143,-0.20308 6.07143,-1.07143 z"
         style="fill:#162d50;fill-opacity:1;fill-rule:nonzero;stroke:#162d50;stroke-width:1.42857146;stroke-miterlimit:4;stroke-opacity:1;stroke-dasharray:none" />
      <path
         inkscape:connector-curvature="0"
         id="path2998-4"
         d="m 361.51207,492.39104 0,-45.35714 18.5714,0 c 16.0318,0 18.5714,0.14652 18.5714,1.07143 0,0.84249 0.9921,1.07142 4.6429,1.07142 3.6508,0 4.6429,0.22894 4.6429,1.07143 0,0.7483 0.7539,1.07143 2.5,1.07143 2.0238,0 2.5,0.27211 2.5,1.42857 0,1.11111 0.4762,1.42857 2.1428,1.42857 1.4286,0 2.1429,0.35715 2.1429,1.07143 0,0.7483 0.7539,1.07143 2.5,1.07143 1.746,0 2.5,0.32313 2.5,1.07143 0,0.58929 0.4821,1.07143 1.0714,1.07143 0.5952,0 1.0714,0.63492 1.0714,1.42857 0,0.79365 0.4762,1.42857 1.0715,1.42857 0.7142,0 1.0714,0.71429 1.0714,2.14286 0,1.66667 0.3175,2.14286 1.4286,2.14286 0.7936,0 1.4285,0.47619 1.4285,1.07142 0,0.58929 0.4822,1.07143 1.0715,1.07143 0.7483,0 1.0714,0.75397 1.0714,2.5 0,1.74603 0.3231,2.5 1.0714,2.5 0.8095,0 1.0714,0.87302 1.0714,3.57143 0,2.69841 0.262,3.57143 1.0715,3.57143 0.9077,0 1.0714,1.74603 1.0714,11.42857 0,9.68254 -0.1637,11.42857 -1.0714,11.42857 -0.8095,0 -1.0715,0.87302 -1.0715,3.57143 0,2.69841 -0.2619,3.57143 -1.0714,3.57143 -0.7483,0 -1.0714,0.75397 -1.0714,2.5 0,1.74603 -0.3231,2.5 -1.0714,2.5 -0.7143,0 -1.0715,0.71429 -1.0715,2.14286 0,1.66666 -0.3174,2.14285 -1.4285,2.14285 -0.7937,0 -1.4286,0.4762 -1.4286,1.07143 0,0.58929 -0.4822,1.07143 -1.0714,1.07143 -0.5953,0 -1.0715,0.63492 -1.0715,1.42857 0,0.79365 -0.4762,1.42857 -1.0714,1.42857 -0.5893,0 -1.0714,0.48215 -1.0714,1.07143 0,0.59524 -0.6349,1.07143 -1.4286,1.07143 -0.7936,0 -1.4286,0.47619 -1.4286,1.07143 0,0.71429 -0.7143,1.07143 -2.1428,1.07143 -1.6667,0 -2.1429,0.31746 -2.1429,1.42857 0,0.79365 -0.4762,1.42857 -1.0714,1.42857 -0.5893,0 -1.0714,0.48214 -1.0714,1.07143 0,0.80952 -0.8731,1.07143 -3.5715,1.07143 -2.6984,0 -3.5714,0.26191 -3.5714,1.07143 0,0.86835 -1.1508,1.07143 -6.0714,1.07143 -4.9207,0 -6.0715,0.20307 -6.0715,1.07142 0,0.92064 -2.2619,1.07143 -16.0714,1.07143 l -16.0714,0 0,-45.35714 z"
         style="fill:#162d50;fill-opacity:1;fill-rule:nonzero;stroke:#162d50;stroke-width:1.42857146;stroke-miterlimit:4;stroke-opacity:1;stroke-dasharray:none" />
    </g>
  </g>
</svg>
